<svg xmlns="http://www.w3.org/2000/svg" xmlns:xlink="http://www.w3.org/1999/xlink" width="1080" zoomAndPan="magnify" viewBox="0 0 810 809.999993" height="1080" preserveAspectRatio="xMidYMid meet" version="1.0"><defs><clipPath id="c0893c255b"><path d="M 28.675781 37.542969 L 772.675781 37.542969 L 772.675781 781.542969 L 28.675781 781.542969 Z M 28.675781 37.542969 " clip-rule="nonzero"/></clipPath><clipPath id="ced5fac180"><path d="M 244.464844 357.667969 L 302.214844 357.667969 L 302.214844 581.167969 L 244.464844 581.167969 Z M 244.464844 357.667969 " clip-rule="nonzero"/></clipPath><clipPath id="b094276ff3"><path d="M 359.910156 357.667969 L 417.660156 357.667969 L 417.660156 581.167969 L 359.910156 581.167969 Z M 359.910156 357.667969 " clip-rule="nonzero"/></clipPath><clipPath id="3916363de4"><path d="M 504.632812 377.1875 L 562.382812 377.1875 L 562.382812 581.1875 L 504.632812 581.1875 Z M 504.632812 377.1875 " clip-rule="nonzero"/></clipPath><clipPath id="70ebd21c4c"><path d="M 393 362 L 502 362 L 502 432 L 393 432 Z M 393 362 " clip-rule="nonzero"/></clipPath><clipPath id="9e6da47022"><path d="M 488.480469 362.472656 L 501.0625 398.59375 L 406.160156 431.65625 L 393.574219 395.539062 Z M 488.480469 362.472656 " clip-rule="nonzero"/></clipPath><clipPath id="b04f3686c7"><path d="M 455 366 L 554 366 L 554 465 L 455 465 Z M 455 366 " clip-rule="nonzero"/></clipPath><clipPath id="34c59bb586"><path d="M 553.5625 437.605469 L 526.515625 464.652344 L 455.453125 393.589844 L 482.5 366.542969 Z M 553.5625 437.605469 " clip-rule="nonzero"/></clipPath><clipPath id="7a46adaf76"><path d="M 234.761719 245.042969 L 310.511719 245.042969 L 310.511719 320.792969 L 234.761719 320.792969 Z M 234.761719 245.042969 " clip-rule="nonzero"/></clipPath><clipPath id="9f6b16aca5"><path d="M 480.5625 357.667969 L 549.5625 357.667969 L 549.5625 426.667969 L 480.5625 426.667969 Z M 480.5625 357.667969 " clip-rule="nonzero"/></clipPath><clipPath id="5d57176480"><path d="M 455.699219 342.660156 L 524.699219 342.660156 L 524.699219 411.660156 L 455.699219 411.660156 Z M 455.699219 342.660156 " clip-rule="nonzero"/></clipPath><clipPath id="75792a6438"><path d="M 426.648438 357.667969 L 473.898438 357.667969 L 473.898438 404.917969 L 426.648438 404.917969 Z M 426.648438 357.667969 " clip-rule="nonzero"/></clipPath></defs><g clip-path="url(#c0893c255b)"><path fill="#ffffff" d="M 400.675781 37.527344 C 606.125 37.527344 772.691406 204.09375 772.691406 409.542969 C 772.691406 614.996094 606.125 781.558594 400.675781 781.558594 C 195.226562 781.558594 28.660156 614.996094 28.660156 409.542969 C 28.660156 204.09375 195.226562 37.527344 400.675781 37.527344 Z M 247.367188 569.625 L 299.804688 569.625 L 299.804688 361.90625 L 247.367188 361.90625 Z M 411.082031 460.160156 C 411.082031 427.394531 426.523438 401.125 462.078125 401.125 C 497.1875 401.125 508.554688 429.429688 508.554688 460.160156 L 508.554688 569.652344 L 560.667969 569.652344 L 560.667969 435.828125 C 560.667969 388.289062 537.640625 355.042969 487.429688 355.042969 C 464.636719 355.042969 438.3125 366.996094 427.175781 387.738281 L 411.082031 417.089844 L 411.082031 361.90625 L 361.46875 361.90625 L 361.46875 569.625 L 411.082031 569.625 Z M 428.25 460.160156 L 428.25 586.792969 L 344.300781 586.792969 L 344.300781 344.738281 L 428.25 344.738281 L 428.25 360.191406 C 444.824219 345.347656 465.175781 337.875 487.429688 337.875 C 547.121094 337.875 577.835938 378.785156 577.835938 435.828125 L 577.835938 586.75 L 491.386719 586.761719 L 491.386719 460.160156 C 491.386719 439.519531 486.835938 418.296875 462.078125 418.296875 C 436.261719 418.296875 428.25 437.078125 428.25 460.160156 Z M 273.257812 315.300781 C 291.429688 315.300781 305.835938 300.445312 305.835938 282.375 C 305.835938 264.289062 291.429688 249.464844 273.257812 249.464844 C 255.085938 249.464844 240.683594 264.289062 240.683594 282.375 C 240.683594 300.445312 255.074219 315.300781 273.257812 315.300781 Z M 273.257812 332.46875 C 245.683594 332.46875 223.511719 309.847656 223.511719 282.375 C 223.511719 254.898438 245.683594 232.296875 273.257812 232.296875 C 300.820312 232.296875 323.003906 254.898438 323.003906 282.375 C 323.003906 309.835938 300.820312 332.46875 273.257812 332.46875 Z M 230.199219 586.792969 L 230.199219 344.738281 L 316.972656 344.738281 L 316.972656 586.792969 Z M 400.675781 54.710938 C 204.703125 54.710938 45.828125 213.570312 45.828125 409.542969 C 45.828125 605.515625 204.703125 764.375 400.675781 764.375 C 596.648438 764.375 755.523438 605.515625 755.523438 409.542969 C 755.523438 213.570312 596.648438 54.710938 400.675781 54.710938 Z M 400.675781 54.710938 " fill-opacity="1" fill-rule="nonzero"/></g><g clip-path="url(#ced5fac180)"><path fill="#ffffff" d="M 244.464844 357.675781 L 302.214844 357.675781 L 302.214844 581.164062 L 244.464844 581.164062 L 244.464844 357.675781 " fill-opacity="1" fill-rule="nonzero"/></g><g clip-path="url(#b094276ff3)"><path fill="#ffffff" d="M 359.910156 357.675781 L 417.660156 357.675781 L 417.660156 581.164062 L 359.910156 581.164062 L 359.910156 357.675781 " fill-opacity="1" fill-rule="nonzero"/></g><g clip-path="url(#3916363de4)"><path fill="#ffffff" d="M 504.632812 377.1875 L 562.382812 377.1875 L 562.382812 581.183594 L 504.632812 581.183594 L 504.632812 377.1875 " fill-opacity="1" fill-rule="nonzero"/></g><g clip-path="url(#70ebd21c4c)"><g clip-path="url(#9e6da47022)"><path fill="#ffffff" d="M 488.480469 362.476562 L 501.0625 398.59375 L 406.15625 431.65625 L 393.574219 395.539062 L 488.480469 362.476562 " fill-opacity="1" fill-rule="nonzero"/></g></g><g clip-path="url(#b04f3686c7)"><g clip-path="url(#34c59bb586)"><path fill="#ffffff" d="M 553.5625 437.609375 L 526.519531 464.652344 L 455.453125 393.589844 L 482.5 366.542969 L 553.5625 437.609375 " fill-opacity="1" fill-rule="nonzero"/></g></g><g clip-path="url(#7a46adaf76)"><path fill="#ffffff" d="M 272.636719 245.042969 C 251.71875 245.042969 234.761719 262 234.761719 282.917969 C 234.761719 303.835938 251.71875 320.792969 272.636719 320.792969 C 293.554688 320.792969 310.511719 303.835938 310.511719 282.917969 C 310.511719 262 293.554688 245.042969 272.636719 245.042969 " fill-opacity="1" fill-rule="nonzero"/></g><g clip-path="url(#9f6b16aca5)"><path fill="#ffffff" d="M 515.0625 357.667969 C 496.007812 357.667969 480.5625 373.113281 480.5625 392.167969 C 480.5625 411.222656 496.007812 426.667969 515.0625 426.667969 C 534.117188 426.667969 549.5625 411.222656 549.5625 392.167969 C 549.5625 373.113281 534.117188 357.667969 515.0625 357.667969 " fill-opacity="1" fill-rule="nonzero"/></g><g clip-path="url(#5d57176480)"><path fill="#ffffff" d="M 490.199219 342.660156 C 471.144531 342.660156 455.699219 358.105469 455.699219 377.160156 C 455.699219 396.214844 471.144531 411.660156 490.199219 411.660156 C 509.253906 411.660156 524.699219 396.214844 524.699219 377.160156 C 524.699219 358.105469 509.253906 342.660156 490.199219 342.660156 " fill-opacity="1" fill-rule="nonzero"/></g><g clip-path="url(#75792a6438)"><path fill="#ffffff" d="M 450.273438 357.667969 C 437.226562 357.667969 426.648438 368.246094 426.648438 381.292969 C 426.648438 394.339844 437.226562 404.917969 450.273438 404.917969 C 463.320312 404.917969 473.898438 394.339844 473.898438 381.292969 C 473.898438 368.246094 463.320312 357.667969 450.273438 357.667969 " fill-opacity="1" fill-rule="nonzero"/></g></svg>