<svg xmlns="http://www.w3.org/2000/svg" xmlns:xlink="http://www.w3.org/1999/xlink" width="1080" zoomAndPan="magnify" viewBox="0 0 810 809.999993" height="1080" preserveAspectRatio="xMidYMid meet" version="1.0"><defs><clipPath id="c17802fdf6"><path d="M 32.246094 32.246094 L 777.746094 32.246094 L 777.746094 777.746094 L 32.246094 777.746094 Z M 32.246094 32.246094 " clip-rule="nonzero"/></clipPath></defs><path fill="#ffffff" d="M 440.792969 293.203125 L 440.792969 353.808594 L 517.101562 353.808594 L 506.425781 436.710938 L 440.792969 436.710938 L 440.792969 626.699219 L 357.578125 626.699219 L 357.578125 436.710938 L 286.292969 436.710938 L 286.292969 353.808594 L 357.578125 353.808594 L 357.578125 293.203125 C 357.578125 227.570312 410.648438 183.292969 476.28125 183.292969 C 505.171875 183.292969 523.382812 187.6875 523.382812 187.6875 L 523.382812 257.71875 L 476.28125 257.71875 C 456.808594 257.71875 440.792969 273.730469 440.792969 293.203125 Z M 440.792969 293.203125 " fill-opacity="1" fill-rule="nonzero"/><g clip-path="url(#c17802fdf6)"><path fill="#ffffff" d="M 404.996094 777.746094 C 199.621094 777.746094 32.246094 610.683594 32.246094 404.996094 C 32.246094 199.308594 199.621094 32.246094 404.996094 32.246094 C 610.683594 32.246094 777.746094 199.621094 777.746094 404.996094 C 777.746094 610.371094 610.683594 777.746094 404.996094 777.746094 Z M 404.996094 52.65625 C 210.613281 52.65625 52.65625 210.613281 52.65625 404.996094 C 52.65625 599.378906 210.613281 757.332031 404.996094 757.332031 C 599.378906 757.332031 757.332031 599.378906 757.332031 404.996094 C 757.332031 210.613281 599.378906 52.65625 404.996094 52.65625 Z M 404.996094 52.65625 " fill-opacity="1" fill-rule="nonzero"/></g></svg>